<svg data-v-423bf9ae="" xmlns="http://www.w3.org/2000/svg" viewBox="0 0 332 90" class="iconLeft"><!----><!----><!----><g data-v-423bf9ae="" id="9010ea5c-68b9-4c3f-8754-cda75a4a214c" fill="white" transform="matrix(4.8674559610718395,0,0,4.8674559610718395,137.83090621405748,-0.447683688665073)"><path d="M0.78 15.25L1.64 5.19L1.64 5.19Q1.65 5.04 1.89 4.72L1.89 4.72L1.89 4.72Q2.13 4.40 2.46 4.31L2.46 4.31L2.46 4.31Q2.53 4.30 2.56 4.30L2.56 4.30L2.56 4.30Q2.59 4.30 2.62 4.30L2.62 4.30L8.13 4.30L8.13 4.30Q8.34 4.30 8.25 4.56L8.25 4.56L8.25 4.56Q8.13 4.91 7.82 5.14L7.82 5.14L7.82 5.14Q7.50 5.36 7.35 5.36L7.35 5.36L2.63 5.36L2.30 9.28L2.30 9.28Q4.68 9.28 7.07 9.28L7.07 9.28L7.07 9.28Q7.28 9.28 7.18 9.55L7.18 9.55L7.18 9.55Q7.07 9.90 6.75 10.12L6.75 10.12L6.75 10.12Q6.44 10.35 6.29 10.35L6.29 10.35L6.29 10.35Q4.24 10.35 2.20 10.35L2.20 10.35L1.85 14.52L1.85 14.52Q1.86 14.81 1.43 15.19L1.43 15.19L1.43 15.19Q1.27 15.33 1.08 15.41L1.08 15.41L1.08 15.41Q0.90 15.48 0.83 15.42L0.83 15.42L0.83 15.42Q0.77 15.36 0.78 15.25L0.78 15.25ZM13.17 7.34L13.17 7.34L13.17 7.34Q15.75 7.56 15.25 11.55L15.25 11.55L15.25 11.55Q15.04 13.15 14.31 14.11L14.31 14.11L14.31 14.11Q13.19 15.60 11.52 15.44L11.52 15.44L11.52 15.44Q8.69 15.19 9.13 11.80L9.13 11.80L9.13 11.80Q9.25 10.84 9.50 10.11L9.50 10.11L9.50 10.11Q9.74 9.38 10.23 8.75L10.23 8.75L10.23 8.75Q11.42 7.18 13.17 7.34ZM12.36 8.40L12.36 8.40L12.36 8.40Q11.30 8.30 10.92 8.81L10.92 8.81L10.92 8.81Q10.71 9.07 10.50 9.68L10.50 9.68L10.50 9.68Q10.29 10.29 10.19 11.10L10.19 11.10L10.19 11.10Q9.80 14.15 12.33 14.38L12.33 14.38L12.33 14.38Q13.30 14.46 13.61 14.06L13.61 14.06L13.61 14.06Q13.76 13.85 13.93 13.36L13.93 13.36L13.93 13.36Q14.10 12.88 14.18 12.25L14.18 12.25L14.18 12.25Q14.66 8.60 12.36 8.40ZM20.71 7.34L20.71 7.34L20.71 7.34Q23.28 7.56 22.78 11.55L22.78 11.55L22.78 11.55Q22.57 13.15 21.84 14.11L21.84 14.11L21.84 14.11Q20.72 15.60 19.05 15.44L19.05 15.44L19.05 15.44Q16.23 15.19 16.66 11.80L16.66 11.80L16.66 11.80Q16.79 10.84 17.03 10.11L17.03 10.11L17.03 10.11Q17.28 9.38 17.77 8.75L17.77 8.75L17.77 8.75Q18.96 7.18 20.71 7.34ZM19.89 8.40L19.89 8.40L19.89 8.40Q18.83 8.30 18.45 8.81L18.45 8.81L18.45 8.81Q18.24 9.07 18.03 9.68L18.03 9.68L18.03 9.68Q17.82 10.29 17.72 11.10L17.72 11.10L17.72 11.10Q17.33 14.15 19.87 14.38L19.87 14.38L19.87 14.38Q20.83 14.46 21.14 14.06L21.14 14.06L21.14 14.06Q21.29 13.85 21.46 13.36L21.46 13.36L21.46 13.36Q21.63 12.88 21.71 12.25L21.71 12.25L21.71 12.25Q22.19 8.60 19.89 8.40ZM29.20 4.07L29.20 4.07Q29.22 3.91 29.39 3.69L29.39 3.69L29.39 3.69Q29.55 3.47 29.74 3.35L29.74 3.35L29.74 3.35Q29.92 3.22 30.03 3.19L30.03 3.19L30.03 3.19Q30.28 3.12 30.27 3.35L30.27 3.35L29.32 14.55L29.32 14.55Q29.30 14.70 29.13 14.92L29.13 14.92L29.13 14.92Q28.97 15.15 28.78 15.27L28.78 15.27L28.78 15.27Q28.60 15.40 28.49 15.43L28.49 15.43L28.49 15.43Q28.24 15.50 28.25 15.27L28.25 15.27L28.35 14.17L28.35 14.17Q27.64 15.05 26.88 15.33L26.88 15.33L26.88 15.33Q26.12 15.61 25.48 15.43L25.48 15.43L25.48 15.43Q23.49 14.85 24.28 10.81L24.28 10.81L24.28 10.81Q24.54 9.46 25.21 8.60L25.21 8.60L25.21 8.60Q26.38 7.11 28.03 7.34L28.03 7.34L28.03 7.34Q28.55 7.41 28.90 7.64L28.90 7.64L29.20 4.07ZM28.48 12.66L28.70 10.05L28.70 10.05Q28.52 8.55 27.19 8.40L27.19 8.40L27.19 8.40Q26.78 8.36 26.47 8.41L26.47 8.41L26.47 8.41Q26.03 8.50 25.89 8.68L25.89 8.68L25.89 8.68Q25.54 9.14 25.34 10.16L25.34 10.16L25.34 10.16Q24.61 13.89 26.35 14.36L26.35 14.36L26.35 14.36Q27.23 14.62 27.71 14.04L27.71 14.04L27.71 14.04Q28.07 13.61 28.43 12.74L28.43 12.74L28.43 12.74Q28.45 12.70 28.48 12.66L28.48 12.66ZM31.58 8.22L31.58 8.22Q31.60 8.06 31.77 7.84L31.77 7.84L31.77 7.84Q31.93 7.62 32.12 7.50L32.12 7.50L32.12 7.50Q32.30 7.38 32.42 7.35L32.42 7.35L32.42 7.35Q32.68 7.29 32.65 7.50L32.65 7.50L31.91 14.56L31.91 14.56Q31.89 14.73 31.72 14.95L31.72 14.95L31.72 14.95Q31.56 15.16 31.37 15.28L31.37 15.28L31.37 15.28Q31.19 15.40 31.07 15.43L31.07 15.43L31.07 15.43Q30.81 15.48 30.84 15.26L30.84 15.26L31.58 8.22ZM31.65 5.81L31.65 5.81Q31.67 5.66 31.83 5.43L31.83 5.43L31.83 5.43Q31.99 5.21 32.17 5.08L32.17 5.08L32.17 5.08Q32.35 4.96 32.48 4.93L32.48 4.93L32.48 4.93Q32.73 4.86 32.72 5.08L32.72 5.08L32.65 6.06L32.65 6.06Q32.63 6.22 32.47 6.44L32.47 6.44L32.47 6.44Q32.31 6.66 32.13 6.79L32.13 6.79L32.13 6.79Q31.95 6.92 31.82 6.94L31.82 6.94L31.82 6.94Q31.57 7.01 31.58 6.79L31.58 6.79L31.65 5.81ZM38.79 11.73L34.73 11.63L34.73 11.63Q34.68 14.22 36.99 14.38L36.99 14.38L36.99 14.38Q37.48 14.42 37.87 14.35L37.87 14.35L37.87 14.35Q38.37 14.27 38.43 14.15L38.43 14.15L38.43 14.15Q38.54 13.94 38.76 13.75L38.76 13.75L38.76 13.75Q38.98 13.55 39.16 13.49L39.16 13.49L39.16 13.49Q39.34 13.43 39.41 13.54L39.41 13.54L39.41 13.54Q39.51 13.72 39.14 14.20L39.14 14.20L39.14 14.20Q38.78 14.67 38.39 14.95L38.39 14.95L38.39 14.95Q38.01 15.22 37.65 15.32L37.65 15.32L37.65 15.32Q36.83 15.54 36.18 15.44L36.18 15.44L36.18 15.44Q33.42 15.26 33.70 11.96L33.70 11.96L33.70 11.96Q33.78 10.93 34.01 10.18L34.01 10.18L34.01 10.18Q34.23 9.44 34.72 8.78L34.72 8.78L34.72 8.78Q35.84 7.27 37.51 7.34L37.51 7.34L37.51 7.34Q40.15 7.43 39.72 10.85L39.72 10.85L39.72 10.85Q39.59 11.41 39.16 11.65L39.16 11.65L39.16 11.65Q38.99 11.75 38.79 11.73L38.79 11.73ZM34.83 10.58L34.83 10.58L34.83 10.58Q34.93 10.56 34.99 10.56L34.99 10.56L38.71 10.64L38.71 10.64Q38.67 8.47 36.71 8.40L36.71 8.40L36.71 8.40Q35.76 8.36 35.43 8.81L35.43 8.81L35.43 8.81Q35.01 9.37 34.83 10.58Z"></path></g><!----><g data-v-423bf9ae="" id="8e64ae09-71ec-4b97-8666-2e6b9ab2e92f" transform="matrix(1.4811961289567586,0,0,1.4811961289567586,-13.265704523954113,-28.497991872230003)" stroke="none" fill="white"><path d="M90.9 74.8c-.5-.3-1.1-.2-1.4.3l-2.1 3.3H12.8L11.1 75c-.2-.5-.8-.7-1.3-.4-.5.2-.7.8-.4 1.3l2 4c.2.3.5.6.9.6H88c.3 0 .7-.2.8-.5l2.4-3.7c.3-.6.2-1.2-.3-1.5zM64.5 21.6s.2.1.5.2c.9.4 2.6 1.5 2.2 4.1-.2 1-.7 1.8-1.2 2.6-.1.2-.2.3-.4.5-1.4 1.9-3.1 4.1.8 8.1.2.2.5.3.7.3.3 0 .5-.1.7-.3.4-.4.4-1 0-1.4-.4-.4-.7-.8-1-1.1-1-1.4-1-2.2-.5-3.2.2-.4.5-.8.8-1.2.8-1 1.7-2.2 2-3.9.7-4-2.4-6-4.1-6.5-.5-.2-1.1.1-1.2.7-.1.4.2 1 .7 1.1z"></path><path d="M68.1 31.1c-.3.5-.1 1.1.3 1.4.1 0 .2.1.4.3.7.6 2.1 2.2 1.1 4.5-.4.9-1.1 1.6-1.8 2.2-.2.1-.3.3-.5.4-1.9 1.5-4 3.2-1.3 8 .2.3.5.5.9.5.2 0 .3 0 .5-.1.5-.3.7-.9.4-1.4-.3-.5-.5-.9-.7-1.3-.7-1.6-.4-2.4.4-3.2.3-.3.7-.6 1.1-.9 1-.8 2.2-1.7 2.9-3.3 1.7-3.7-.7-6.4-2.2-7.4-.6-.4-1.2-.2-1.5.3zM12.9 69.2c-.1.6-.1 1.2.2 1.9-.1.1-.2.3-.3.5-.2.4-.9 1.3-.3 2.4.8 1.5 3.9 3.3 21.1 3.3 17.1 0 20.2-1.7 21-3.3.6-1.1-.1-2-.4-2.4-.3-.6-.7-1-1-1.3.1-.3.2-.5.2-.8.6-.2 1.1-.4 1.5-.6.7.4 1.5.7 2.3 1l-.9 4.6c-.1.3 0 .6.2.8.2.2.5.4.8.4h20.1c.3 0 .6-.1.8-.4.2-.2.3-.5.2-.8l-.9-4.5c6.1-2.3 11.9-7.3 12.3-18 0-.3-.1-.5-.3-.7-.2-.2-.4-.3-.7-.3H46c-.3 0-.5.1-.7.3-.2.2-.3.5-.3.7 0 1.1.2 2.2.3 3.2-3.4-1.2-7.4-1.9-11.8-1.9C20.5 53.2 11 59 11 67c0 .7.3 1.7 1.9 2.2zM22.3 57l2.4 4.2c.2.3.5.5.9.5.2 0 .3 0 .5-.1.5-.3.6-.9.4-1.4l-2.2-3.9c2.1-.6 4.4-1 6.9-1.1l2.6 4.5c.2.3.5.5.9.5.2 0 .3 0 .5-.1.5-.3.6-.9.4-1.4l-2-3.6c2.7 0 5.2.3 7.5.8l2.7 4.8c.2.3.5.5.9.5.2 0 .3 0 .5-.1.5-.3.6-.9.4-1.4l-1.8-3.1c.7.2 1.4.5 2.1.8.4.2.8.3 1.2.5.5.2.9.5 1.3.7 3.2 1.9 5.2 4.3 5.6 7.2 0 .3.1.7.1 1 0 .1 0 .1-.1.2-.1.2-.5.3-1.1.5h-.1c-.2 0-.4.1-.7.1-.8.1-1.9.2-3.4.2-1.6 0-3.4-.1-5.6-.1-2.8-.1-5.9-.2-9.5-.2-3.3 0-6.4.1-9.1.2-1.6 0-3 .1-4.2.1h-1.4c-1.8 0-3.2-.1-4.1-.2-.3 0-.5-.1-.7-.1-.6-.1-1-.4-1-.5-.1-4.4 3.5-8 9.2-10zm46.5 12.6h-2.7c-4-.3-7.3-1.2-10.1-2.6v-.1c0-3.7-2.1-7-5.7-9.4h36.5c-2.7 9.1-11 11.7-18 12.1zM47.1 52.8h40.6c-.1 1-.2 1.9-.4 2.7H47.5c-.2-.8-.3-1.7-.4-2.7zM24.9 71.9l-3.4-2.1c1 0 2 0 3.1-.1 1.1 0 2.3-.1 3.5-.1l-3.2 2.3zM15 70.5c-.2-.2-.2-.6-.2-.9.6.1 1.4.1 2.3.2h.5l.9.5 1.3.8h-2.9c-1 0-1.6-.2-1.9-.6zm16.7-.9h3.9l.2.2 2.2 1.6-8.8-.1 2.5-1.7zm7.4 0c1.4 0 2.7.1 3.9.1 1.1 0 2.2.1 3.2.1L42.5 72l-3.4-2.4zm11.7.9c-.6.6-1.6 1-2.9 1h-.6l2.5-1.5c.1 0 .1-.1.1-.1.5 0 .9 0 1.3-.1 0 .2-.2.5-.4.7zm-17.3 4.8c-3.8 0-6.9-.1-9.4-.2-9-.5-9.8-1.8-9.9-1.9 0-.1.1-.3.2-.3l.1-.1c.6.3 1.4.5 2.4.5s3.6 0 6.2.1l1.3.8c.2-.2.4-.2.6-.2.2 0 .4-.1.6-.2l.9-.7 14.5.3 1 .7c.2.1.4.2.6.2.2 0 .4 0 .5-.1l1.1-.6h3.9c1.8 0 3.2-.5 4.2-1.5.1.1.2.3.3.5 0 .1.1.2.2.3.1.1.2.3.2.3-.3.1-1.6 2.1-19.5 2.1zm42.7-1.7H58.6l.6-3.1c2 .6 4.3 1 6.7 1.2h2.9c2-.1 4.3-.4 6.7-1.1l.7 3z"></path></g><!----></svg>